<?xml version="1.0" encoding="UTF-8"?>
<svg id="Layer_2" data-name="Layer 2" xmlns="http://www.w3.org/2000/svg" viewBox="0 0 1478.37 236.6">
  <defs>
    <style>
      .cls-1, .cls-2 {
        fill: #2a4759;
      }

      .cls-2 {
        stroke: #2a4759;
      }

      .cls-2, .cls-3 {
        stroke-linecap: round;
        stroke-linejoin: round;
        stroke-width: 4.2px;
      }

      .cls-3 {
        fill: #8d9fa6;
        stroke: #8d9fa6;
      }
    </style>
  </defs>
  <g id="Layer_4" data-name="Layer 4">
    <g>
      <g>
        <polygon class="cls-3" points="1063.52 31.64 1232.82 127.96 1232.82 98.42 1063.52 2.1 1063.52 31.64"/>
        <polygon class="cls-3" points="1123.45 129.92 1222.52 189 1222.52 159.46 1123.45 100.37 1123.45 129.92"/>
        <polygon class="cls-3" points="1135.44 191.53 1210.4 234.51 1210.4 204.96 1135.44 161.99 1135.44 191.53"/>
        <polygon class="cls-2" points="1294.45 31.64 1123.45 129.92 1123.45 100.37 1294.45 2.1 1294.45 31.64"/>
        <polygon class="cls-2" points="1232.82 127.96 1135.44 191.52 1135.44 161.97 1232.82 98.42 1232.82 127.96"/>
        <polygon class="cls-2" points="1222.53 189.02 1147.57 234.51 1147.57 204.96 1222.53 159.48 1222.53 189.02"/>
      </g>
      <path class="cls-1" d="M236.51,7.17v224.55h-36.83V77.93l-68.5,153.79h-25.53L36.83,77.93v153.79H0V7.17h39.74l78.84,176.09L197.09,7.17h39.42Z"/>
      <path class="cls-1" d="M300.4,36.9v65.91h77.54v30.05h-77.54v68.82h87.23v30.05h-124.07V6.85h124.07v30.05h-87.23Z"/>
      <path class="cls-1" d="M647.97,7.17v224.55h-36.83V77.93l-68.5,153.79h-25.53l-68.82-153.79v153.79h-36.83V7.17h39.74l78.84,176.09L608.56,7.17h39.42Z"/>
      <path class="cls-1" d="M719.79,219.28c-17.56-9.8-31.45-23.47-41.68-41.03-10.23-17.55-15.35-37.32-15.35-59.29s5.12-41.68,15.35-59.13c10.23-17.44,24.12-31.07,41.68-40.87,17.55-9.8,36.78-14.7,57.67-14.7s40.44,4.9,57.99,14.7c17.55,9.8,31.39,23.43,41.52,40.87,10.12,17.45,15.19,37.15,15.19,59.13s-5.06,41.73-15.19,59.29c-10.13,17.56-23.97,31.23-41.52,41.03-17.56,9.8-36.89,14.7-57.99,14.7s-40.12-4.9-57.67-14.7ZM817.2,191.82c11.63-6.79,20.73-16.48,27.3-29.08,6.57-12.6,9.85-27.19,9.85-43.78s-3.29-31.12-9.85-43.62c-6.57-12.49-15.67-22.08-27.3-28.76-11.63-6.67-24.88-10.02-39.74-10.02s-28.11,3.34-39.74,10.02c-11.63,6.68-20.73,16.27-27.3,28.76-6.57,12.49-9.85,27.03-9.85,43.62s3.28,31.18,9.85,43.78c6.57,12.6,15.67,22.29,27.3,29.08,11.63,6.78,24.88,10.17,39.74,10.17s28.11-3.39,39.74-10.17Z"/>
      <path class="cls-1" d="M1055.89,106.36c-5.39,10.13-14,18.37-25.85,24.72-11.85,6.36-27.04,9.53-45.56,9.53h-40.71v91.11h-36.83V7.17h77.54c17.23,0,31.83,2.97,43.78,8.89,11.95,5.92,20.89,13.95,26.81,24.07,5.92,10.12,8.88,21.43,8.88,33.92,0,11.42-2.7,22.19-8.08,32.31ZM1015.83,101.03c6.89-6.35,10.34-15.34,10.34-26.98,0-24.56-13.89-36.83-41.68-36.83h-40.71v73.34h40.71c14,0,24.44-3.17,31.34-9.53Z"/>
      <path class="cls-1" d="M1430.23,231.72l-86.91-100.48v100.48h-36.83V7.17h36.83v102.42l87.23-102.42h46.2l-97.57,112.44,99.19,112.11h-48.14Z"/>
    </g>
  </g>
</svg>